<svg width="24" height="24" viewBox="0 0 24 24" fill="none" xmlns="http://www.w3.org/2000/svg">
<path d="M13.7862 20.8189V15.7856C13.7862 15.5631 13.7048 15.3497 13.5599 15.1924C13.415 15.0351 13.2185 14.9467 13.0135 14.9467H9.92261C9.71767 14.9467 9.52112 15.0351 9.37621 15.1924C9.23129 15.3497 9.14988 15.5631 9.14988 15.7856V20.8189C9.14988 21.0414 9.06848 21.2547 8.92359 21.412C8.77869 21.5694 8.58217 21.6578 8.37725 21.6578L3.74145 21.6584C3.63997 21.6585 3.53947 21.6368 3.44571 21.5946C3.35195 21.5525 3.26675 21.4907 3.19499 21.4128C3.12322 21.3349 3.0663 21.2424 3.02746 21.1406C2.98862 21.0388 2.96863 20.9297 2.96863 20.8196V11.1242C2.96863 11.0074 2.99112 10.8918 3.03467 10.7849C3.07822 10.678 3.14186 10.5822 3.22151 10.5036L10.9483 2.87665C11.0905 2.73625 11.2758 2.65845 11.4681 2.65845C11.6603 2.65844 11.8457 2.73623 11.9879 2.87662L19.7157 10.5036C19.7954 10.5822 19.859 10.678 19.9026 10.7849C19.9461 10.8918 19.9686 11.0074 19.9686 11.1243V20.8196C19.9686 20.9297 19.9486 21.0388 19.9098 21.1406C19.871 21.2424 19.814 21.3349 19.7423 21.4128C19.6705 21.4907 19.5853 21.5525 19.4915 21.5946C19.3978 21.6368 19.2973 21.6585 19.1958 21.6584L14.5589 21.6578C14.3539 21.6578 14.1574 21.5694 14.0125 21.412C13.8676 21.2547 13.7862 21.0414 13.7862 20.8189V20.8189Z" stroke="white" stroke-width="2" stroke-linecap="round" stroke-linejoin="round"/>
</svg>
